<?xml version="1.0" standalone="no"?>
<!DOCTYPE svg PUBLIC "-//W3C//DTD SVG 1.1//EN" "http://www.w3.org/Graphics/SVG/1.1/DTD/svg11.dtd">
<svg xmlns="http://www.w3.org/2000/svg" xmlns:xlink="http://www.w3.org/1999/xlink" width="300" zoomAndPan="magnify" viewBox="0 0 300 149.999998" height="150" preserveAspectRatio="xMidYMid meet" version="1.0"><defs><filter x="0%" y="0%" width="100%" height="100%" id="312cc85e70"><feColorMatrix values="0 0 0 0 1 0 0 0 0 1 0 0 0 0 1 0 0 0 1 0" color-interpolation-filters="sRGB"/></filter><mask id="199ae3ebfb"><g filter="url(#312cc85e70)"><rect x="-30" width="360" fill="#000000" y="-15" height="179.999997" fill-opacity="0.2"/></g></mask><clipPath id="df42d5078e"><rect x="0" width="152" y="0" height="150"/></clipPath><clipPath id="91465866b1"><path d="M 135 60 L 178 60 L 178 121.183594 L 135 121.183594 Z M 135 60 " clip-rule="nonzero"/></clipPath><clipPath id="70c7cb68ba"><path d="M 46 60 L 62 60 L 62 121.183594 L 46 121.183594 Z M 46 60 " clip-rule="nonzero"/></clipPath><clipPath id="382f00cca2"><path d="M 188 60 L 230 60 L 230 121.183594 L 188 121.183594 Z M 188 60 " clip-rule="nonzero"/></clipPath><clipPath id="b7927d34ee"><path d="M 188 59 L 230 59 L 230 121.183594 L 188 121.183594 Z M 188 59 " clip-rule="nonzero"/></clipPath><clipPath id="24b5444859"><path d="M 9.203125 60 L 40 60 L 40 121 L 9.203125 121 Z M 9.203125 60 " clip-rule="nonzero"/></clipPath><clipPath id="02d15dbebf"><path d="M 9.203125 60 L 40 60 L 40 121.183594 L 9.203125 121.183594 Z M 9.203125 60 " clip-rule="nonzero"/></clipPath><clipPath id="a4c4051461"><path d="M 67 58.933594 L 129 58.933594 L 129 121.183594 L 67 121.183594 Z M 67 58.933594 " clip-rule="nonzero"/></clipPath><clipPath id="12078bfd22"><path d="M 230 59 L 290.453125 59 L 290.453125 121 L 230 121 Z M 230 59 " clip-rule="nonzero"/></clipPath><clipPath id="2011036274"><path d="M 230 58.933594 L 290.453125 58.933594 L 290.453125 121.183594 L 230 121.183594 Z M 230 58.933594 " clip-rule="nonzero"/></clipPath></defs><g mask="url(#199ae3ebfb)"><g transform="matrix(1, 0, 0, 1, 74, -0.000000000000007527)"><g clip-path="url(#df42d5078e)"><path stroke-linecap="butt" transform="matrix(0.299401, 0, 0, 0.299401, 0.999998, 0.000002)" fill-opacity="1" fill="#202020" fill-rule="nonzero" stroke-linejoin="round" d="M 250.500029 10.776713 C 118.322126 10.776713 10.776726 118.309067 10.776726 250.500016 C 10.776726 382.690965 118.322126 490.223319 250.500029 490.223319 C 382.690978 490.223319 490.223332 382.690965 490.223332 250.500016 C 490.223332 118.309067 382.690978 10.776713 250.500029 10.776713 M 250.500029 500.504257 C 112.646735 500.504257 0.495788 388.35331 0.495788 250.500016 C 0.495788 112.646722 112.646735 0.495775 250.500029 0.495775 C 388.353323 0.495775 500.50427 112.646722 500.50427 250.500016 C 500.50427 388.35331 388.353323 500.504257 250.500029 500.504257 " stroke="#202020" stroke-width="1" stroke-opacity="1" stroke-miterlimit="2"/><path stroke-linecap="butt" transform="matrix(0.299401, 0, 0, 0.299401, 0.999998, 0.000002)" fill-opacity="1" fill="#202020" fill-rule="evenodd" stroke-linejoin="round" d="M 158.284708 23.040777 L 350.373866 471.644567 L 340.914881 475.689099 L 148.83877 27.085308 Z M 158.284708 23.040777 " stroke="#202020" stroke-width="1" stroke-opacity="1" stroke-miterlimit="2"/><path stroke-linecap="butt" transform="matrix(0.299401, 0, 0, 0.299401, 0.999998, 0.000002)" fill-opacity="1" fill="#202020" fill-rule="evenodd" stroke-linejoin="round" d="M 311.729019 404.596671 L 321.78816 406.762452 L 303.796518 490.366835 L 293.750423 488.201053 Z M 311.729019 404.596671 " stroke="#202020" stroke-width="1" stroke-opacity="1" stroke-miterlimit="2"/><path stroke-linecap="butt" transform="matrix(0.299401, 0, 0, 0.299401, 0.999998, 0.000002)" fill-opacity="1" fill="#202020" fill-rule="evenodd" stroke-linejoin="round" d="M 319.426676 401.230576 L 392.984964 447.312143 L 387.531369 456.027456 L 313.973082 409.94589 Z M 319.426676 401.230576 " stroke="#202020" stroke-width="1" stroke-opacity="1" stroke-miterlimit="2"/><path stroke-linecap="butt" transform="matrix(0.299401, 0, 0, 0.299401, 0.999998, 0.000002)" fill-opacity="1" fill="#202020" fill-rule="evenodd" stroke-linejoin="round" d="M 114.199313 46.733904 L 187.274867 91.171564 L 181.938695 99.952112 L 108.863141 55.514451 Z M 114.199313 46.733904 " stroke="#202020" stroke-width="1" stroke-opacity="1" stroke-miterlimit="2"/><path stroke-linecap="butt" transform="matrix(0.299401, 0, 0, 0.299401, 0.999998, 0.000002)" fill-opacity="1" fill="#202020" fill-rule="evenodd" stroke-linejoin="round" d="M 196.707758 9.550307 L 206.792994 11.585619 L 189.662445 96.677346 L 179.57721 94.642033 Z M 196.707758 9.550307 " stroke="#202020" stroke-width="1" stroke-opacity="1" stroke-miterlimit="2"/><path stroke-linecap="butt" transform="matrix(0.299401, 0, 0, 0.299401, 0.999998, 0.000002)" fill-opacity="1" fill="#202020" fill-rule="evenodd" stroke-linejoin="round" d="M 37.36626 128.629146 L 485.630831 321.501116 L 481.573253 330.934008 L 33.308681 138.075084 Z M 37.36626 128.629146 " stroke="#202020" stroke-width="1" stroke-opacity="1" stroke-miterlimit="2"/><path stroke-linecap="butt" transform="matrix(0.299401, 0, 0, 0.299401, 0.999998, 0.000002)" fill-opacity="1" fill="#202020" fill-rule="evenodd" stroke-linejoin="round" d="M 420.944419 293.906973 L 466.451923 368.300261 L 457.684423 373.662527 L 412.189965 299.256192 Z M 420.944419 293.906973 " stroke="#202020" stroke-width="1" stroke-opacity="1" stroke-miterlimit="2"/><path stroke-linecap="butt" transform="matrix(0.299401, 0, 0, 0.299401, 0.999998, 0.000002)" fill-opacity="1" fill="#202020" fill-rule="evenodd" stroke-linejoin="round" d="M 68.013372 91.223752 L 112.829391 162.094383 L 104.140172 167.587118 L 59.324152 96.716486 Z M 68.013372 91.223752 " stroke="#202020" stroke-width="1" stroke-opacity="1" stroke-miterlimit="2"/><path stroke-linecap="butt" transform="matrix(0.299401, 0, 0, 0.299401, 0.999998, 0.000002)" fill-opacity="1" fill="#202020" fill-rule="evenodd" stroke-linejoin="round" d="M 492.115129 275.758768 L 494.189582 285.830957 L 417.500044 301.591583 L 415.438638 291.519395 Z M 492.115129 275.758768 " stroke="#202020" stroke-width="1" stroke-opacity="1" stroke-miterlimit="2"/><path stroke-linecap="butt" transform="matrix(0.299401, 0, 0, 0.299401, 0.999998, 0.000002)" fill-opacity="1" fill="#202020" fill-rule="evenodd" stroke-linejoin="round" d="M 107.310563 159.758992 L 109.476344 169.79204 L 16.64782 189.871182 L 14.482039 179.838135 Z M 107.310563 159.758992 " stroke="#202020" stroke-width="1" stroke-opacity="1" stroke-miterlimit="2"/></g></g></g><path fill="#202020" d="M 135.625 60.140625 L 149.191406 60.140625 C 149.214844 63.523438 149.246094 66.808594 149.265625 70.121094 C 149.285156 73.457031 149.269531 76.792969 149.269531 80.128906 L 149.269531 110.347656 C 153.945312 110.398438 158.574219 110.363281 163.199219 110.371094 C 167.796875 110.375 172.394531 110.371094 177.097656 110.371094 L 177.097656 120.898438 L 135.625 120.898438 Z M 135.625 60.140625 " fill-opacity="1" fill-rule="nonzero"/><g clip-path="url(#91465866b1)"><path stroke-linecap="butt" transform="matrix(0.23418, 0, 0, 0.234905, 9.204681, 58.933669)" fill="none" stroke-linejoin="round" d="M 539.84289 5.13806 L 597.774464 5.13806 C 597.874547 19.538828 598.007991 33.52387 598.091394 47.625315 C 598.174797 61.826534 598.108075 76.027753 598.108075 90.228973 L 598.108075 218.8714 C 618.074701 219.087578 637.841161 218.937916 657.59094 218.971175 C 677.223955 218.987804 696.85697 218.971175 716.94036 218.971175 L 716.94036 263.786498 L 539.84289 263.786498 Z M 539.84289 5.13806 " stroke="#202020" stroke-width="1" stroke-opacity="1" stroke-miterlimit="2"/></g><path fill="#202020" d="M 61.117188 60.289062 L 47.441406 60.289062 C 47.441406 60.289062 46.984375 112.175781 46.898438 120.835938 L 60.507812 120.972656 C 60.550781 119.296875 61.117188 60.289062 61.117188 60.289062 " fill-opacity="1" fill-rule="nonzero"/><g clip-path="url(#70c7cb68ba)"><path stroke-linecap="butt" transform="matrix(0.23418, 0, 0, 0.234905, 9.204681, 58.933669)" fill="none" stroke-linejoin="round" d="M 221.677953 5.769964 L 163.279325 5.769964 C 163.279325 5.769964 161.3277 226.653801 160.960727 263.520433 L 219.075787 264.10245 C 219.259273 256.968582 221.677953 5.769964 221.677953 5.769964 " stroke="#202020" stroke-width="1" stroke-opacity="1" stroke-miterlimit="2"/></g><g clip-path="url(#382f00cca2)"><path fill="#202020" d="M 228.542969 82.199219 C 226.492188 73.695312 221.792969 67.285156 213.855469 63.40625 C 209.042969 61.054688 203.886719 60.15625 198.582031 60.109375 C 195.496094 60.085938 192.039062 60.078125 188.535156 60.078125 L 188.535156 70.847656 C 189.667969 70.847656 191.308594 70.847656 191.828125 70.851562 C 194.679688 70.878906 197.535156 70.835938 200.378906 70.953125 C 204.082031 71.105469 207.40625 72.332031 210.21875 74.804688 C 212.601562 76.894531 214.125 79.558594 214.910156 82.574219 C 216.390625 88.246094 216.429688 93.941406 214.550781 99.542969 C 212.65625 105.191406 208.800781 108.75 202.910156 109.957031 C 201.757812 110.191406 200.570312 110.324219 199.394531 110.34375 C 196.367188 110.402344 193.339844 110.367188 190.3125 110.367188 C 190.179688 110.367188 189.265625 110.351562 188.535156 110.335938 L 188.535156 120.988281 C 192.277344 120.988281 195.984375 120.992188 199.277344 121.011719 C 202.054688 121.023438 204.789062 120.789062 207.492188 120.179688 C 212.234375 119.105469 216.503906 117.078125 220.105469 113.761719 C 225.929688 108.398438 228.632812 101.546875 229.273438 93.832031 C 229.597656 89.949219 229.472656 86.046875 228.542969 82.199219 " fill-opacity="1" fill-rule="nonzero"/></g><g clip-path="url(#b7927d34ee)"><path stroke-linecap="butt" transform="matrix(0.23418, 0, 0, 0.234905, 9.204681, 58.933669)" fill="none" stroke-linejoin="round" d="M 936.623291 99.042376 C 927.865999 62.840907 907.799289 35.552615 873.904398 19.039956 C 853.353952 9.029261 831.335617 5.204576 808.683422 5.005028 C 795.505782 4.905253 780.743489 4.871995 765.78103 4.871995 L 765.78103 50.71832 C 770.618391 50.71832 777.624225 50.71832 779.842739 50.734949 C 792.019545 50.851353 804.213032 50.668433 816.356478 51.167305 C 832.169645 51.815839 846.364799 57.037364 858.3748 67.563561 C 868.549939 76.460109 875.055356 87.80113 878.408148 100.638766 C 884.730079 124.784165 884.896885 149.029338 876.873537 172.875413 C 868.783467 196.921038 852.319758 212.070114 827.165478 217.208494 C 822.244714 218.206238 817.173825 218.771626 812.152977 218.854771 C 799.225546 219.104207 786.298115 218.954545 773.370683 218.954545 C 772.803544 218.954545 768.900294 218.888029 765.78103 218.821513 L 765.78103 264.168966 C 781.761003 264.168966 797.590851 264.185595 811.652561 264.268741 C 823.512436 264.318628 835.188826 263.320884 846.731771 260.72675 C 866.981967 256.153758 885.213815 247.523275 900.593288 233.405201 C 925.463998 210.573498 937.006944 181.406122 939.742555 148.563724 C 941.127041 132.034436 940.593263 115.422002 936.623291 99.042376 " stroke="#202020" stroke-width="1" stroke-opacity="1" stroke-miterlimit="2"/></g><g clip-path="url(#24b5444859)"><path fill="#202020" d="M 39.058594 92.5 L 22.96875 92.5 L 22.96875 75.90625 C 22.96875 73.273438 22.976562 70.636719 22.964844 68.003906 C 22.953125 65.394531 23.019531 62.78125 22.921875 60.1875 L 9.320312 60.1875 L 9.320312 120.886719 L 23.03125 120.886719 L 23.03125 103.460938 L 39.058594 103.460938 Z M 39.058594 92.5 " fill-opacity="1" fill-rule="nonzero"/></g><g clip-path="url(#02d15dbebf)"><path stroke-linecap="butt" transform="matrix(0.23418, 0, 0, 0.234905, 9.204681, 58.933669)" fill="none" stroke-linejoin="round" d="M 127.48285 142.893214 L 58.775637 142.893214 L 58.775637 72.252956 C 58.775637 61.044968 58.808999 49.820351 58.758957 38.612363 C 58.708915 27.504149 58.992485 16.379306 58.575471 5.337609 L 0.493773 5.337609 L 0.493773 263.736611 L 59.042526 263.736611 L 59.042526 189.554363 L 127.48285 189.554363 Z M 127.48285 142.893214 " stroke="#202020" stroke-width="1" stroke-opacity="1" stroke-miterlimit="2"/></g><path fill="#202020" d="M 99.226562 59.050781 L 96.765625 59.050781 C 87.230469 79.652344 77.628906 100.226562 68.058594 120.914062 L 81.621094 120.914062 C 82.0625 119.910156 95.171875 90.871094 97.792969 85.183594 C 97.804688 85.183594 97.820312 85.183594 97.835938 85.183594 C 97.863281 85.183594 98.171875 85.183594 98.199219 85.183594 C 100.816406 90.871094 113.925781 119.910156 114.371094 120.914062 L 127.933594 120.914062 C 118.359375 100.226562 108.761719 79.652344 99.226562 59.050781 " fill-opacity="1" fill-rule="nonzero"/><g clip-path="url(#a4c4051461)"><path stroke-linecap="butt" transform="matrix(0.23418, 0, 0, 0.234905, 9.204681, 58.933669)" fill="none" stroke-linejoin="round" d="M 384.413464 0.498552 L 373.904713 0.498552 C 333.187474 88.200227 292.186666 175.785499 251.319303 263.853014 L 309.234195 263.853014 C 311.119098 259.579345 367.099046 135.958895 378.2917 111.74698 C 378.341741 111.74698 378.408463 111.74698 378.475186 111.74698 C 378.59195 111.74698 379.909714 111.74698 380.026477 111.74698 C 391.20245 135.958895 447.182398 259.579345 449.083982 263.853014 L 506.998874 263.853014 C 466.11483 175.785499 425.130703 88.200227 384.413464 0.498552 " stroke="#202020" stroke-width="1" stroke-opacity="1" stroke-miterlimit="2"/></g><g clip-path="url(#12078bfd22)"><path fill="#202020" d="M 261.632812 59.050781 L 259.167969 59.050781 C 249.632812 79.652344 240.035156 100.226562 230.460938 120.914062 L 244.023438 120.914062 C 244.46875 119.910156 257.578125 90.871094 260.195312 85.183594 C 260.210938 85.183594 260.226562 85.183594 260.242188 85.183594 C 260.269531 85.183594 260.578125 85.183594 260.605469 85.183594 C 263.222656 90.871094 276.332031 119.910156 276.777344 120.914062 L 290.335938 120.914062 C 280.765625 100.226562 271.164062 79.652344 261.632812 59.050781 " fill-opacity="1" fill-rule="nonzero"/></g><g clip-path="url(#2011036274)"><path stroke-linecap="butt" transform="matrix(0.23418, 0, 0, 0.234905, 9.204681, 58.933669)" fill="none" stroke-linejoin="round" d="M 1077.924286 0.498552 L 1067.398855 0.498552 C 1026.681616 88.200227 985.697488 175.785499 944.813444 263.853014 L 1002.728337 263.853014 C 1004.62992 259.579345 1060.609868 135.958895 1071.785841 111.74698 C 1071.852563 111.74698 1071.919286 111.74698 1071.986008 111.74698 C 1072.102772 111.74698 1073.420536 111.74698 1073.5373 111.74698 C 1084.713272 135.958895 1140.693221 259.579345 1142.594804 263.853014 L 1200.493016 263.853014 C 1159.625652 175.785499 1118.624844 88.200227 1077.924286 0.498552 " stroke="#202020" stroke-width="1" stroke-opacity="1" stroke-miterlimit="2"/></g></svg>