<?xml version="1.0" standalone="no"?>
<!DOCTYPE svg PUBLIC "-//W3C//DTD SVG 1.1//EN" "http://www.w3.org/Graphics/SVG/1.1/DTD/svg11.dtd">
<svg xmlns="http://www.w3.org/2000/svg" xmlns:xlink="http://www.w3.org/1999/xlink" width="600" zoomAndPan="magnify" viewBox="0 0 600 112.499997" height="112.5" preserveAspectRatio="xMidYMid meet" version="1.0"><defs><g/><clipPath id="451bc70630"><path d="M 476 18 L 524 18 L 524 88.074219 L 476 88.074219 Z M 476 18 " clip-rule="nonzero"/></clipPath><clipPath id="c59132e45e"><path d="M 271.773438 18 L 306 18 L 306 88 L 271.773438 88 Z M 271.773438 18 " clip-rule="nonzero"/></clipPath><clipPath id="22fa756440"><path d="M 271.773438 18 L 307 18 L 307 88 L 271.773438 88 Z M 271.773438 18 " clip-rule="nonzero"/></clipPath><clipPath id="e9bb2adce6"><path d="M 339 17.140625 L 408 17.140625 L 408 88 L 339 88 Z M 339 17.140625 " clip-rule="nonzero"/></clipPath><clipPath id="3ac9ceef35"><path d="M 338 17.140625 L 408 17.140625 L 408 88 L 338 88 Z M 338 17.140625 " clip-rule="nonzero"/></clipPath><clipPath id="6660d7ca39"><path d="M 524 17.140625 L 593.589844 17.140625 L 593.589844 88 L 524 88 Z M 524 17.140625 " clip-rule="nonzero"/></clipPath></defs><path stroke-linecap="butt" transform="matrix(0.267944, 0, 0, 0.267678, 271.78141, 17.140736)" fill-opacity="1" fill="#202020" fill-rule="nonzero" stroke-linejoin="round" d="M 539.844661 5.136349 L 597.779985 5.136349 C 597.867457 19.53972 597.998664 33.519892 598.086135 47.631401 C 598.173607 61.830469 598.115293 76.029537 598.115293 90.228605 L 598.115293 218.881208 C 618.073385 219.085511 637.841956 218.93958 657.595948 218.968766 C 677.233311 218.997953 696.870674 218.968766 716.945395 218.968766 L 716.945395 263.784118 L 539.844661 263.784118 Z M 539.844661 5.136349 " stroke="#202020" stroke-width="1" stroke-opacity="1" stroke-miterlimit="2"/><path stroke-linecap="butt" transform="matrix(0.267944, 0, 0, 0.267678, 271.78141, 17.140736)" fill-opacity="1" fill="#202020" fill-rule="nonzero" stroke-linejoin="round" d="M 221.681471 5.763852 L 163.279631 5.763852 C 163.279631 5.763852 161.3261 226.65932 160.961635 263.521443 L 219.086481 264.105166 C 219.261424 256.969149 221.681471 5.763852 221.681471 5.763852 " stroke="#202020" stroke-width="1" stroke-opacity="1" stroke-miterlimit="2"/><path fill="#202020" d="M 522.746094 43.652344 C 520.394531 33.960938 515.019531 26.65625 505.941406 22.238281 C 500.429688 19.558594 494.535156 18.53125 488.464844 18.480469 C 484.933594 18.453125 480.976562 18.441406 476.964844 18.445312 L 476.964844 30.71875 C 478.261719 30.71875 480.140625 30.714844 480.738281 30.722656 C 484 30.75 487.265625 30.703125 490.519531 30.839844 C 494.753906 31.011719 498.5625 32.410156 501.777344 35.222656 C 504.503906 37.605469 506.246094 40.644531 507.144531 44.078125 C 508.839844 50.539062 508.882812 57.035156 506.734375 63.417969 C 504.566406 69.851562 500.15625 73.910156 493.417969 75.28125 C 492.097656 75.550781 490.738281 75.699219 489.390625 75.726562 C 485.929688 75.789062 482.464844 75.75 479 75.75 C 478.851562 75.75 477.804688 75.734375 476.964844 75.714844 L 476.964844 87.855469 C 481.25 87.855469 485.488281 87.859375 489.261719 87.878906 C 492.4375 87.894531 495.566406 87.628906 498.65625 86.929688 C 504.085938 85.707031 508.96875 83.394531 513.089844 79.617188 C 519.753906 73.503906 522.847656 65.699219 523.578125 56.910156 C 523.949219 52.484375 523.808594 48.035156 522.746094 43.652344 " fill-opacity="1" fill-rule="nonzero"/><g clip-path="url(#451bc70630)"><path stroke-linecap="butt" transform="matrix(0.267944, 0, 0, 0.267678, 271.78141, 17.140736)" fill="none" stroke-linejoin="round" d="M 936.630197 99.042826 C 927.853885 62.837392 907.793742 35.54833 873.913095 19.043556 C 853.342701 9.032702 831.343606 5.194722 808.688474 5.005012 C 795.509427 4.90286 780.741314 4.859081 765.7691 4.873674 L 765.7691 50.725135 C 770.609192 50.725135 777.621495 50.710542 779.85202 50.739728 C 792.025144 50.841879 804.212847 50.666762 816.356814 51.17752 C 832.160007 51.819616 846.374135 57.043939 858.372316 67.550957 C 868.548173 76.452737 875.050225 87.806154 878.403301 100.633472 C 884.73041 124.770428 884.890774 149.038722 876.872549 172.883816 C 868.78143 196.918621 852.3222 212.080832 827.174129 217.203004 C 822.246565 218.209926 817.173215 218.764463 812.143601 218.866615 C 799.226968 219.100104 786.295757 218.954173 773.364546 218.954173 C 772.81056 218.954173 768.903497 218.895801 765.7691 218.822836 L 765.7691 264.178132 C 781.761815 264.178132 797.579587 264.192725 811.662507 264.26569 C 823.514902 264.324062 835.192355 263.331733 846.724021 260.719571 C 866.988263 256.151937 885.211503 247.512833 900.591918 233.401324 C 925.462996 210.563152 937.00924 181.406176 939.735437 148.571743 C 941.120403 132.037782 940.595574 115.416263 936.630197 99.042826 " stroke="#202020" stroke-width="1" stroke-opacity="1" stroke-miterlimit="2"/></g><g clip-path="url(#c59132e45e)"><path fill="#202020" d="M 305.9375 55.390625 L 287.527344 55.390625 L 287.527344 36.480469 C 287.527344 33.480469 287.539062 30.476562 287.527344 27.476562 C 287.511719 24.503906 287.585938 21.527344 287.476562 18.570312 L 271.914062 18.570312 L 271.914062 87.738281 L 287.601562 87.738281 L 287.601562 67.878906 L 305.9375 67.878906 Z M 305.9375 55.390625 " fill-opacity="1" fill-rule="nonzero"/></g><g clip-path="url(#22fa756440)"><path stroke-linecap="butt" transform="matrix(0.267944, 0, 0, 0.267678, 271.78141, 17.140736)" fill="none" stroke-linejoin="round" d="M 127.47461 142.895035 L 58.765706 142.895035 L 58.765706 72.249929 C 58.765706 61.042443 58.809442 49.820364 58.765706 38.612877 C 58.707392 27.507543 58.984385 16.387615 58.576184 5.340653 L 0.495074 5.340653 L 0.495074 263.740339 L 59.042699 263.740339 L 59.042699 189.549115 L 127.47461 189.549115 Z M 127.47461 142.895035 " stroke="#202020" stroke-width="1" stroke-opacity="1" stroke-miterlimit="2"/></g><g clip-path="url(#e9bb2adce6)"><path fill="#202020" d="M 374.785156 17.273438 L 371.964844 17.273438 C 361.054688 40.75 350.074219 64.195312 339.121094 87.769531 L 354.636719 87.769531 C 355.144531 86.625 370.144531 53.53125 373.140625 47.050781 C 373.15625 47.054688 373.175781 47.054688 373.191406 47.050781 C 373.222656 47.054688 373.578125 47.054688 373.609375 47.050781 C 376.605469 53.53125 391.601562 86.625 392.113281 87.769531 L 407.628906 87.769531 C 396.675781 64.195312 385.691406 40.75 374.785156 17.273438 " fill-opacity="1" fill-rule="nonzero"/></g><g clip-path="url(#3ac9ceef35)"><path stroke-linecap="butt" transform="matrix(0.267944, 0, 0, 0.267678, 271.78141, 17.140736)" fill="none" stroke-linejoin="round" d="M 384.422292 0.49575 L 373.896549 0.49575 C 333.178542 88.200167 292.19812 175.787839 251.319748 263.857084 L 309.225915 263.857084 C 311.121132 259.581311 367.102925 135.948728 378.284705 111.738807 C 378.343019 111.7534 378.415912 111.7534 378.474227 111.738807 C 378.590855 111.7534 379.917507 111.7534 380.034136 111.738807 C 391.215916 135.948728 447.18313 259.581311 449.092926 263.857084 L 506.999093 263.857084 C 466.120721 175.787839 425.125721 88.200167 384.422292 0.49575 " stroke="#202020" stroke-width="1" stroke-opacity="1" stroke-miterlimit="2"/></g><g clip-path="url(#6660d7ca39)"><path stroke-linecap="butt" transform="matrix(0.267944, 0, 0, 0.267678, 271.78141, 17.140736)" fill-opacity="1" fill="#202020" fill-rule="nonzero" stroke-linejoin="round" d="M 1077.92591 0.49575 L 1067.400167 0.49575 C 1026.682159 88.200167 985.701738 175.787839 944.823366 263.857084 L 1002.729533 263.857084 C 1004.62475 259.581311 1060.606543 135.948728 1071.788323 111.738807 C 1071.846637 111.7534 1071.91953 111.7534 1071.977845 111.738807 C 1072.094473 111.7534 1073.421125 111.7534 1073.537754 111.738807 C 1084.719534 135.948728 1140.686748 259.581311 1142.581965 263.857084 L 1200.502711 263.857084 C 1159.624339 175.787839 1118.629339 88.200167 1077.92591 0.49575 " stroke="#202020" stroke-width="1" stroke-opacity="1" stroke-miterlimit="2"/></g><g fill="#000000" fill-opacity="1"><g transform="translate(4.88474, 83.842748)"><g><path d="M -0.140625 9.875 L 5.90625 -26.34375 L 9.8125 -26.34375 L 9.125 -22.15625 L 9.609375 -22.15625 C 9.972656 -22.613281 10.476562 -23.195312 11.125 -23.90625 C 11.78125 -24.625 12.65625 -25.265625 13.75 -25.828125 C 14.851562 -26.398438 16.257812 -26.6875 17.96875 -26.6875 C 20.1875 -26.6875 22.046875 -26.128906 23.546875 -25.015625 C 25.054688 -23.910156 26.113281 -22.335938 26.71875 -20.296875 C 27.332031 -18.265625 27.414062 -15.867188 26.96875 -13.109375 C 26.507812 -10.316406 25.632812 -7.898438 24.34375 -5.859375 C 23.0625 -3.816406 21.484375 -2.238281 19.609375 -1.125 C 17.742188 -0.0078125 15.710938 0.546875 13.515625 0.546875 C 11.828125 0.546875 10.519531 0.265625 9.59375 -0.296875 C 8.675781 -0.867188 8 -1.515625 7.5625 -2.234375 C 7.132812 -2.960938 6.8125 -3.566406 6.59375 -4.046875 L 6.25 -4.046875 L 3.90625 9.875 Z M 7.6875 -13.171875 C 7.207031 -10.191406 7.460938 -7.765625 8.453125 -5.890625 C 9.441406 -4.023438 11.148438 -3.09375 13.578125 -3.09375 C 15.273438 -3.09375 16.765625 -3.539062 18.046875 -4.4375 C 19.328125 -5.332031 20.378906 -6.539062 21.203125 -8.0625 C 22.023438 -9.59375 22.59375 -11.296875 22.90625 -13.171875 C 23.207031 -15.023438 23.203125 -16.695312 22.890625 -18.1875 C 22.578125 -19.675781 21.925781 -20.859375 20.9375 -21.734375 C 19.945312 -22.609375 18.59375 -23.046875 16.875 -23.046875 C 14.40625 -23.046875 12.375 -22.132812 10.78125 -20.3125 C 9.195312 -18.5 8.164062 -16.117188 7.6875 -13.171875 Z M 7.6875 -13.171875 "/></g></g></g><g fill="#000000" fill-opacity="1"><g transform="translate(31.90324, 83.842748)"><g><path d="M 12.421875 0.546875 C 9.992188 0.546875 7.960938 -0.03125 6.328125 -1.1875 C 4.703125 -2.34375 3.550781 -3.957031 2.875 -6.03125 C 2.207031 -8.113281 2.09375 -10.539062 2.53125 -13.3125 C 2.96875 -16.007812 3.835938 -18.359375 5.140625 -20.359375 C 6.441406 -22.367188 8.054688 -23.925781 9.984375 -25.03125 C 11.921875 -26.132812 14.054688 -26.6875 16.390625 -26.6875 C 18.816406 -26.6875 20.847656 -26.101562 22.484375 -24.9375 C 24.117188 -23.78125 25.273438 -22.15625 25.953125 -20.0625 C 26.628906 -17.976562 26.738281 -15.546875 26.28125 -12.765625 C 25.84375 -10.085938 24.972656 -7.75 23.671875 -5.75 C 22.367188 -3.757812 20.75 -2.210938 18.8125 -1.109375 C 16.882812 -0.00390625 14.753906 0.546875 12.421875 0.546875 Z M 12.484375 -3.09375 C 14.335938 -3.09375 15.945312 -3.566406 17.3125 -4.515625 C 18.6875 -5.460938 19.800781 -6.710938 20.65625 -8.265625 C 21.507812 -9.816406 22.078125 -11.5 22.359375 -13.3125 C 22.640625 -15.019531 22.628906 -16.613281 22.328125 -18.09375 C 22.035156 -19.582031 21.398438 -20.78125 20.421875 -21.6875 C 19.453125 -22.59375 18.085938 -23.046875 16.328125 -23.046875 C 14.472656 -23.046875 12.859375 -22.566406 11.484375 -21.609375 C 10.117188 -20.648438 9.007812 -19.382812 8.15625 -17.8125 C 7.3125 -16.25 6.742188 -14.566406 6.453125 -12.765625 C 6.171875 -11.046875 6.175781 -9.453125 6.46875 -7.984375 C 6.769531 -6.515625 7.40625 -5.332031 8.375 -4.4375 C 9.351562 -3.539062 10.722656 -3.09375 12.484375 -3.09375 Z M 12.484375 -3.09375 "/></g></g></g><g fill="#000000" fill-opacity="1"><g transform="translate(58.304245, 83.842748)"><g><path d="M 7.484375 0 L 3.84375 -26.34375 L 8.09375 -26.34375 L 10.421875 -6.171875 L 10.703125 -6.171875 L 19.6875 -26.34375 L 24.015625 -26.34375 L 26.203125 -6.25 L 26.484375 -6.25 L 35.53125 -26.34375 L 39.796875 -26.34375 L 27.375 0 L 23.390625 0 L 21 -20.234375 L 20.578125 -20.234375 L 11.453125 0 Z M 7.484375 0 "/></g></g></g><g fill="#000000" fill-opacity="1"><g transform="translate(95.133926, 83.842748)"><g><path d="M 12.484375 0.546875 C 9.960938 0.546875 7.875 -0.015625 6.21875 -1.140625 C 4.570312 -2.265625 3.421875 -3.84375 2.765625 -5.875 C 2.117188 -7.90625 2.019531 -10.269531 2.46875 -12.96875 C 2.914062 -15.664062 3.800781 -18.046875 5.125 -20.109375 C 6.457031 -22.171875 8.109375 -23.78125 10.078125 -24.9375 C 12.054688 -26.101562 14.234375 -26.6875 16.609375 -26.6875 C 17.972656 -26.6875 19.289062 -26.457031 20.5625 -26 C 21.832031 -25.539062 22.929688 -24.800781 23.859375 -23.78125 C 24.785156 -22.757812 25.429688 -21.40625 25.796875 -19.71875 C 26.160156 -18.039062 26.132812 -15.972656 25.71875 -13.515625 L 25.453125 -11.796875 L 6.296875 -11.796875 C 5.804688 -8.578125 6.179688 -6.320312 7.421875 -5.03125 C 8.671875 -3.738281 10.566406 -3.09375 13.109375 -3.09375 C 14.722656 -3.09375 16.148438 -3.429688 17.390625 -4.109375 C 18.640625 -4.796875 19.632812 -5.828125 20.375 -7.203125 L 24.078125 -6.109375 C 23.128906 -4.117188 21.628906 -2.507812 19.578125 -1.28125 C 17.535156 -0.0625 15.171875 0.546875 12.484375 0.546875 Z M 6.859375 -15.296875 L 21.890625 -15.296875 C 22.273438 -17.523438 21.9375 -19.375 20.875 -20.84375 C 19.820312 -22.3125 18.191406 -23.046875 15.984375 -23.046875 C 14.503906 -23.046875 13.117188 -22.660156 11.828125 -21.890625 C 10.546875 -21.117188 9.460938 -20.140625 8.578125 -18.953125 C 7.691406 -17.765625 7.117188 -16.546875 6.859375 -15.296875 Z M 6.859375 -15.296875 "/></g></g></g><g fill="#000000" fill-opacity="1"><g transform="translate(120.917451, 83.842748)"><g><path d="M 1.515625 0 L 5.90625 -26.34375 L 9.8125 -26.34375 L 9.125 -22.359375 L 9.40625 -22.359375 C 10.082031 -23.660156 11.113281 -24.71875 12.5 -25.53125 C 13.894531 -26.34375 15.398438 -26.75 17.015625 -26.75 C 18.410156 -26.75 19.460938 -26.429688 20.171875 -25.796875 L 18.25 -22.4375 C 17.769531 -22.707031 17.015625 -22.84375 15.984375 -22.84375 C 14.703125 -22.84375 13.515625 -22.570312 12.421875 -22.03125 C 11.328125 -21.5 10.414062 -20.769531 9.6875 -19.84375 C 8.957031 -18.914062 8.492188 -17.859375 8.296875 -16.671875 L 5.5625 0 Z M 1.515625 0 "/></g></g></g><g fill="#000000" fill-opacity="1"><g transform="translate(137.027002, 83.842748)"><g><path d="M 12.484375 0.546875 C 9.960938 0.546875 7.875 -0.015625 6.21875 -1.140625 C 4.570312 -2.265625 3.421875 -3.84375 2.765625 -5.875 C 2.117188 -7.90625 2.019531 -10.269531 2.46875 -12.96875 C 2.914062 -15.664062 3.800781 -18.046875 5.125 -20.109375 C 6.457031 -22.171875 8.109375 -23.78125 10.078125 -24.9375 C 12.054688 -26.101562 14.234375 -26.6875 16.609375 -26.6875 C 17.972656 -26.6875 19.289062 -26.457031 20.5625 -26 C 21.832031 -25.539062 22.929688 -24.800781 23.859375 -23.78125 C 24.785156 -22.757812 25.429688 -21.40625 25.796875 -19.71875 C 26.160156 -18.039062 26.132812 -15.972656 25.71875 -13.515625 L 25.453125 -11.796875 L 6.296875 -11.796875 C 5.804688 -8.578125 6.179688 -6.320312 7.421875 -5.03125 C 8.671875 -3.738281 10.566406 -3.09375 13.109375 -3.09375 C 14.722656 -3.09375 16.148438 -3.429688 17.390625 -4.109375 C 18.640625 -4.796875 19.632812 -5.828125 20.375 -7.203125 L 24.078125 -6.109375 C 23.128906 -4.117188 21.628906 -2.507812 19.578125 -1.28125 C 17.535156 -0.0625 15.171875 0.546875 12.484375 0.546875 Z M 6.859375 -15.296875 L 21.890625 -15.296875 C 22.273438 -17.523438 21.9375 -19.375 20.875 -20.84375 C 19.820312 -22.3125 18.191406 -23.046875 15.984375 -23.046875 C 14.503906 -23.046875 13.117188 -22.660156 11.828125 -21.890625 C 10.546875 -21.117188 9.460938 -20.140625 8.578125 -18.953125 C 7.691406 -17.765625 7.117188 -16.546875 6.859375 -15.296875 Z M 6.859375 -15.296875 "/></g></g></g><g fill="#000000" fill-opacity="1"><g transform="translate(162.810527, 83.842748)"><g><path d="M 11.453125 0.546875 C 9.242188 0.546875 7.390625 -0.0078125 5.890625 -1.125 C 4.398438 -2.238281 3.347656 -3.816406 2.734375 -5.859375 C 2.117188 -7.898438 2.039062 -10.316406 2.5 -13.109375 C 2.96875 -15.867188 3.84375 -18.265625 5.125 -20.296875 C 6.414062 -22.335938 8 -23.910156 9.875 -25.015625 C 11.75 -26.128906 13.796875 -26.6875 16.015625 -26.6875 C 17.734375 -26.6875 19.046875 -26.398438 19.953125 -25.828125 C 20.859375 -25.265625 21.515625 -24.625 21.921875 -23.90625 C 22.335938 -23.195312 22.65625 -22.613281 22.875 -22.15625 L 23.21875 -22.15625 L 25.390625 -35.125 L 29.4375 -35.125 L 23.59375 0 L 19.6875 0 L 20.375 -4.046875 L 19.890625 -4.046875 C 19.515625 -3.566406 18.988281 -2.960938 18.3125 -2.234375 C 17.644531 -1.515625 16.757812 -0.867188 15.65625 -0.296875 C 14.550781 0.265625 13.148438 0.546875 11.453125 0.546875 Z M 12.453125 -3.09375 C 14.890625 -3.09375 16.9375 -4.023438 18.59375 -5.890625 C 20.25 -7.765625 21.320312 -10.191406 21.8125 -13.171875 C 22.300781 -16.117188 22.03125 -18.5 21 -20.3125 C 19.976562 -22.132812 18.226562 -23.046875 15.75 -23.046875 C 14.039062 -23.046875 12.554688 -22.609375 11.296875 -21.734375 C 10.046875 -20.859375 9.023438 -19.675781 8.234375 -18.1875 C 7.441406 -16.695312 6.894531 -15.023438 6.59375 -13.171875 C 6.28125 -11.296875 6.269531 -9.59375 6.5625 -8.0625 C 6.863281 -6.539062 7.492188 -5.332031 8.453125 -4.4375 C 9.421875 -3.539062 10.753906 -3.09375 12.453125 -3.09375 Z M 12.453125 -3.09375 "/></g></g></g><g fill="#000000" fill-opacity="1"><g transform="translate(190.446513, 83.842748)"><g/></g></g><g fill="#000000" fill-opacity="1"><g transform="translate(201.616161, 83.842748)"><g><path d="M 2.0625 0 L 7.890625 -35.125 L 11.9375 -35.125 L 9.8125 -22.15625 L 10.15625 -22.15625 C 10.519531 -22.613281 11.023438 -23.195312 11.671875 -23.90625 C 12.328125 -24.625 13.203125 -25.265625 14.296875 -25.828125 C 15.398438 -26.398438 16.804688 -26.6875 18.515625 -26.6875 C 20.734375 -26.6875 22.59375 -26.128906 24.09375 -25.015625 C 25.601562 -23.910156 26.664062 -22.335938 27.28125 -20.296875 C 27.894531 -18.265625 27.972656 -15.867188 27.515625 -13.109375 C 27.054688 -10.316406 26.179688 -7.898438 24.890625 -5.859375 C 23.609375 -3.816406 22.03125 -2.238281 20.15625 -1.125 C 18.289062 -0.0078125 16.257812 0.546875 14.0625 0.546875 C 12.375 0.546875 11.066406 0.265625 10.140625 -0.296875 C 9.222656 -0.867188 8.550781 -1.515625 8.125 -2.234375 C 7.695312 -2.960938 7.367188 -3.566406 7.140625 -4.046875 L 6.65625 -4.046875 L 5.96875 0 Z M 8.234375 -13.171875 C 7.753906 -10.191406 8.007812 -7.765625 9 -5.890625 C 9.988281 -4.023438 11.695312 -3.09375 14.125 -3.09375 C 15.820312 -3.09375 17.3125 -3.539062 18.59375 -4.4375 C 19.875 -5.332031 20.925781 -6.539062 21.75 -8.0625 C 22.570312 -9.59375 23.144531 -11.296875 23.46875 -13.171875 C 23.757812 -15.023438 23.75 -16.695312 23.4375 -18.1875 C 23.125 -19.675781 22.472656 -20.859375 21.484375 -21.734375 C 20.492188 -22.609375 19.140625 -23.046875 17.421875 -23.046875 C 14.953125 -23.046875 12.921875 -22.132812 11.328125 -20.3125 C 9.742188 -18.5 8.710938 -16.117188 8.234375 -13.171875 Z M 8.234375 -13.171875 "/></g></g></g><g fill="#000000" fill-opacity="1"><g transform="translate(229.183525, 83.842748)"><g><path d="M 2.328125 10.21875 C 1.640625 10.21875 1.03125 10.160156 0.5 10.046875 C -0.03125 9.941406 -0.378906 9.835938 -0.546875 9.734375 L 1.03125 6.171875 C 1.96875 6.421875 2.804688 6.507812 3.546875 6.4375 C 4.296875 6.363281 5.003906 6.03125 5.671875 5.4375 C 6.347656 4.84375 7.039062 3.898438 7.75 2.609375 L 9.1875 0 L 3.84375 -26.34375 L 8.09375 -26.34375 L 11.875 -5.34375 L 12.140625 -5.34375 L 22.90625 -26.34375 L 27.4375 -26.34375 L 11.046875 4.25 C 8.878906 8.226562 5.972656 10.21875 2.328125 10.21875 Z M 2.328125 10.21875 "/></g></g></g></svg>