<?xml version="1.0" standalone="no"?>
<!DOCTYPE svg PUBLIC "-//W3C//DTD SVG 1.1//EN" "http://www.w3.org/Graphics/SVG/1.1/DTD/svg11.dtd">
<svg xmlns="http://www.w3.org/2000/svg" xmlns:xlink="http://www.w3.org/1999/xlink" xmlns:serif="http://www.serif.com/" width="501" height="501" viewBox="0 0 501 501" version="1.1" xml:space="preserve" style="fill-rule:evenodd;clip-rule:evenodd;stroke-linejoin:round;stroke-miterlimit:2;"><g><path d="M250.502,10.774c-132.185,0 -239.728,107.54 -239.728,239.728c0,132.184 107.543,239.724 239.728,239.724c132.184,-0 239.724,-107.54 239.724,-239.724c-0,-132.188 -107.54,-239.728 -239.724,-239.728m-0,489.726c-137.849,-0 -250.002,-112.149 -250.002,-249.998c0,-137.853 112.153,-250.002 250.002,-250.002c137.849,-0 249.998,112.149 249.998,250.002c0,137.849 -112.149,249.998 -249.998,249.998" style="fill:#202020;fill-rule:nonzero;stroke:#202020;stroke-width:1px;"/><g><path d="M158.289,23.039l192.079,448.607l-9.447,4.045l-192.079,-448.607l9.447,-4.045Z" style="fill:#202020;stroke:#202020;stroke-width:1px;"/><path d="M311.726,404.595l10.056,2.163l-17.981,83.609l-10.057,-2.163l17.982,-83.609Z" style="fill:#202020;stroke:#202020;stroke-width:1px;"/><path d="M319.422,401.234l73.561,46.083l-5.455,8.708l-73.561,-46.083l5.455,-8.708Z" style="fill:#202020;stroke:#202020;stroke-width:1px;"/><path d="M114.204,46.735l73.066,44.441l-5.337,8.774l-73.066,-44.441l5.337,-8.774Z" style="fill:#202020;stroke:#202020;stroke-width:1px;"/><path d="M196.711,9.555l10.083,2.03l-17.128,85.091l-10.083,-2.03l17.128,-85.091Z" style="fill:#202020;stroke:#202020;stroke-width:1px;"/><path d="M37.367,128.634l448.267,192.867l-4.061,9.437l-448.266,-192.866l4.06,-9.438Z" style="fill:#202020;stroke:#202020;stroke-width:1px;"/><path d="M420.949,293.901l45.498,74.404l-8.76,5.357l-45.499,-74.404l8.761,-5.357Z" style="fill:#202020;stroke:#202020;stroke-width:1px;"/><path d="M68.014,91.22l44.812,70.873l-8.684,5.491l-44.812,-70.873l8.684,-5.491Z" style="fill:#202020;stroke:#202020;stroke-width:1px;"/></g><path d="M492.115,275.76l2.069,10.068l-76.682,15.759l-2.069,-10.068l76.682,-15.759Z" style="fill:#202020;stroke:#202020;stroke-width:1px;"/><path d="M107.309,159.761l2.17,10.037l-92.832,20.074l-2.17,-10.038l92.832,-20.073Z" style="fill:#202020;stroke:#202020;stroke-width:1px;"/></g></svg>